<?xml version="1.0" encoding="UTF-8" standalone="no"?>
<svg
   xmlns:dc="http://purl.org/dc/elements/1.1/"
   xmlns:cc="http://creativecommons.org/ns#"
   xmlns:rdf="http://www.w3.org/1999/02/22-rdf-syntax-ns#"
   xmlns:svg="http://www.w3.org/2000/svg"
   xmlns="http://www.w3.org/2000/svg"
   viewBox="0 0 682.66669 682.66669"
   height="682.66669"
   width="682.66669"
   xml:space="preserve"
   id="svg2"
   version="1.1"><metadata
     id="metadata8"><rdf:RDF><cc:Work
         rdf:about=""><dc:format>image/svg+xml</dc:format><dc:type
           rdf:resource="http://purl.org/dc/dcmitype/StillImage" /></cc:Work></rdf:RDF></metadata><defs
     id="defs6"><clipPath
       id="clipPath20"
       clipPathUnits="userSpaceOnUse"><path
         id="path18"
         d="M 0,512 H 512 V 0 H 0 Z" /></clipPath></defs><g
     transform="matrix(1.3333333,0,0,-1.3333333,0,682.66667)"
     id="g10"><path
       id="path12"
       style="fill:#ffffff;fill-opacity:1;fill-rule:nonzero;stroke:none"
       d="M 0,0 H 512 V 512 H 0 Z" /><g
       id="g14"><g
         clip-path="url(#clipPath20)"
         id="g16"><g
           transform="translate(304.6279,307.0537)"
           id="g22"><path
             id="path24"
             style="fill:#c6c3c0;fill-opacity:1;fill-rule:nonzero;stroke:none"
             d="M 0,0 V 23.143 H -52.932 V 0 c -29.159,-11.662 -49.95,-42.032 -49.95,-77.665 0,-45.713 34.213,-82.771 76.416,-82.771 42.204,0 76.417,37.058 76.417,82.771 C 49.951,-42.032 29.159,-11.662 0,0" /></g><g
           transform="translate(314.6572,307.0537)"
           id="g26"><path
             id="path28"
             style="fill:#e8e7e7;fill-opacity:1;fill-rule:nonzero;stroke:none"
             d="M 0,0 V 23.143 H -53.376 V 0 c -29.403,-11.662 -50.369,-42.032 -50.369,-77.665 0,-45.713 34.499,-82.771 77.057,-82.771 42.557,0 77.056,37.058 77.056,82.771 C 50.368,-42.032 29.402,-11.662 0,0" /></g><g
           transform="translate(307.624,307.0537)"
           id="g30"><path
             id="path32"
             style="fill:#dcd8d4;fill-opacity:1;fill-rule:nonzero;stroke:none"
             d="M 0,0 V 23.143 H -49.758 V 0 c -27.409,-11.662 -46.954,-42.032 -46.954,-77.665 0,-45.713 32.161,-82.771 71.833,-82.771 39.673,0 71.834,37.058 71.834,82.771 C 46.955,-42.032 27.41,-11.662 0,0" /></g><g
           transform="translate(308.6826,322.1963)"
           id="g34"><path
             id="path36"
             style="fill:#959595;fill-opacity:1;fill-rule:nonzero;stroke:none"
             d="m 0,0 h -51.875 c -2.75,0 -5,2.25 -5,5 v 7.11 c 0,2.75 2.25,5 5,5 H 0 c 2.75,0 5,-2.25 5,-5 V 5 C 5,2.25 2.75,0 0,0" /></g><g
           transform="translate(311.4121,307.0537)"
           id="g38"><path
             id="path40"
             style="fill:none;stroke:#333333;stroke-width:8;stroke-linecap:butt;stroke-linejoin:miter;stroke-miterlimit:10;stroke-dasharray:none;stroke-opacity:1"
             d="M 0,0 V 23.143 H -57.333 V 0 c -31.583,-11.662 -54.104,-42.032 -54.104,-77.665 0,-45.713 37.058,-82.771 82.77,-82.771 45.713,0 82.771,37.058 82.771,82.771 C 54.104,-42.032 31.583,-11.662 0,0 Z" /></g><g
           transform="translate(306.9121,330.1963)"
           id="g42"><path
             id="path44"
             style="fill:#c6c3c0;fill-opacity:1;fill-rule:nonzero;stroke:none"
             d="m 0,0 h -55.333 c -2.75,0 -5,2.25 -5,5 v 7.11 c 0,2.75 2.25,5 5,5 H 0 c 2.75,0 5,-2.25 5,-5 V 5 C 5,2.25 2.75,0 0,0" /></g><g
           transform="translate(314.4121,330.1963)"
           id="g46"><path
             id="path48"
             style="fill:#e8e7e7;fill-opacity:1;fill-rule:nonzero;stroke:none"
             d="m 0,0 h -55.5 c -2.75,0 -5,2.25 -5,5 v 7.11 c 0,2.75 2.25,5 5,5 H 0 c 2.75,0 5,-2.25 5,-5 V 5 C 5,2.25 2.75,0 0,0" /></g><g
           transform="translate(306.9121,330.1963)"
           id="g50"><path
             id="path52"
             style="fill:#dcd8d4;fill-opacity:1;fill-rule:nonzero;stroke:none"
             d="m 0,0 h -48 c -2.75,0 -5,2.25 -5,5 v 7.11 c 0,2.75 2.25,5 5,5 H 0 c 2.75,0 5,-2.25 5,-5 V 5 C 5,2.25 2.75,0 0,0" /></g><g
           transform="translate(316.6201,330.1963)"
           id="g54"><path
             id="path56"
             style="fill:none;stroke:#333333;stroke-width:8;stroke-linecap:butt;stroke-linejoin:miter;stroke-miterlimit:10;stroke-dasharray:none;stroke-opacity:1"
             d="m 0,0 h -67.75 c -2.75,0 -5,2.25 -5,5 v 7.11 c 0,2.75 2.25,5 5,5 H 0 c 2.75,0 5,-2.25 5,-5 V 5 C 5,2.25 2.75,0 0,0 Z" /></g><g
           transform="translate(215.0029,252.667)"
           id="g58"><path
             id="path60"
             style="fill:#69b6b1;fill-opacity:1;fill-rule:nonzero;stroke:none"
             d="m 0,0 c -2.646,-7.693 -4.091,-16.001 -4.091,-24.667 0,-39.673 30.258,-71.833 67.583,-71.833 37.325,0 67.584,32.16 67.584,71.833 0,8.666 -1.445,16.974 -4.091,24.667 z" /></g><g
           transform="translate(224.1494,252.667)"
           id="g62"><path
             id="path64"
             style="fill:#aadcda;fill-opacity:1;fill-rule:nonzero;stroke:none"
             d="m 0,0 c -2.633,-7.693 -4.071,-16.001 -4.071,-24.667 0,-39.673 30.109,-71.833 67.251,-71.833 37.14,0 67.25,32.16 67.25,71.833 0,8.666 -1.438,16.974 -4.072,24.667 z" /></g><g
           transform="translate(223.8921,252.667)"
           id="g66"><path
             id="path68"
             style="fill:#88d0cd;fill-opacity:1;fill-rule:nonzero;stroke:none"
             d="m 0,0 c -2.467,-7.693 -3.813,-16.001 -3.813,-24.667 0,-39.673 28.206,-71.833 63,-71.833 34.794,0 63,32.16 63,71.833 0,8.666 -1.347,16.974 -3.813,24.667 z" /></g><g
           transform="translate(215.2603,252.667)"
           id="g70"><path
             id="path72"
             style="fill:none;stroke:#333333;stroke-width:4;stroke-linecap:round;stroke-linejoin:round;stroke-miterlimit:10;stroke-dasharray:none;stroke-opacity:1"
             d="m 0,0 c -2.813,-7.693 -4.348,-16.001 -4.348,-24.667 0,-39.673 32.161,-71.833 71.833,-71.833 39.673,0 71.834,32.16 71.834,71.833 0,8.666 -1.536,16.974 -4.349,24.667 z" /></g><g
           transform="translate(333.6885,232.083)"
           id="g74"><path
             id="path76"
             style="fill:#aadcda;fill-opacity:1;fill-rule:nonzero;stroke:none"
             d="m 0,0 c 0,-2.854 -2.313,-5.167 -5.167,-5.167 -2.854,0 -5.167,2.313 -5.167,5.167 0,2.854 2.313,5.167 5.167,5.167 C -2.313,5.167 0,2.854 0,0" /></g><g
           transform="translate(333.6885,232.9697)"
           id="g78"><path
             id="path80"
             style="fill:#f05543;fill-opacity:1;fill-rule:nonzero;stroke:none"
             d="m 0,0 c 0,-3.344 -2.71,-6.054 -6.054,-6.054 -3.343,0 -6.053,2.71 -6.053,6.054 0,3.344 2.71,6.054 6.053,6.054 C -2.71,6.054 0,3.344 0,0" /></g><g
           transform="translate(333.6885,232.9697)"
           id="g82"><path
             id="path84"
             style="fill:none;stroke:#333333;stroke-width:2;stroke-linecap:round;stroke-linejoin:round;stroke-miterlimit:10;stroke-dasharray:none;stroke-opacity:1"
             d="m 0,0 c 0,-3.344 -2.71,-6.054 -6.054,-6.054 -3.343,0 -6.053,2.71 -6.053,6.054 0,3.344 2.71,6.054 6.053,6.054 C -2.71,6.054 0,3.344 0,0 Z" /></g><g
           transform="translate(323.0186,208.333)"
           id="g86"><path
             id="path88"
             style="fill:#aadcda;fill-opacity:1;fill-rule:nonzero;stroke:none"
             d="m 0,0 c 0,-3.751 -3.04,-6.791 -6.791,-6.791 -3.751,0 -6.792,3.04 -6.792,6.791 0,3.751 3.041,6.792 6.792,6.792 C -3.04,6.792 0,3.751 0,0" /></g><g
           transform="translate(323.0186,209.499)"
           id="g90"><path
             id="path92"
             style="fill:#f05543;fill-opacity:1;fill-rule:nonzero;stroke:none"
             d="m 0,0 c 0,-4.395 -3.563,-7.957 -7.956,-7.957 -4.395,0 -7.957,3.562 -7.957,7.957 0,4.394 3.562,7.956 7.957,7.956 C -3.563,7.956 0,4.394 0,0" /></g><g
           transform="translate(323.0186,209.499)"
           id="g94"><path
             id="path96"
             style="fill:none;stroke:#333333;stroke-width:2;stroke-linecap:round;stroke-linejoin:round;stroke-miterlimit:10;stroke-dasharray:none;stroke-opacity:1"
             d="m 0,0 c 0,-4.395 -3.563,-7.957 -7.956,-7.957 -4.395,0 -7.957,3.562 -7.957,7.957 0,4.394 3.562,7.956 7.957,7.956 C -3.563,7.956 0,4.394 0,0 Z" /></g><g
           transform="translate(298.9893,222.6299)"
           id="g98"><path
             id="path100"
             style="fill:#aadcda;fill-opacity:1;fill-rule:nonzero;stroke:none"
             d="m 0,0 c 0,-5.752 -4.662,-10.414 -10.413,-10.414 -5.752,0 -10.414,4.662 -10.414,10.414 0,5.751 4.662,10.413 10.414,10.413 C -4.662,10.413 0,5.751 0,0" /></g><g
           transform="translate(298.9893,224.0791)"
           id="g102"><path
             id="path104"
             style="fill:#f05543;fill-opacity:1;fill-rule:nonzero;stroke:none"
             d="m 0,0 c 0,-6.552 -5.311,-11.863 -11.863,-11.863 -6.552,0 -11.864,5.311 -11.864,11.863 0,6.552 5.312,11.863 11.864,11.863 C -5.311,11.863 0,6.552 0,0" /></g><g
           transform="translate(298.9893,224.0791)"
           id="g106"><path
             id="path108"
             style="fill:none;stroke:#333333;stroke-width:2;stroke-linecap:round;stroke-linejoin:round;stroke-miterlimit:10;stroke-dasharray:none;stroke-opacity:1"
             d="m 0,0 c 0,-6.552 -5.311,-11.863 -11.863,-11.863 -6.552,0 -11.864,5.311 -11.864,11.863 0,6.552 5.312,11.863 11.864,11.863 C -5.311,11.863 0,6.552 0,0 Z" /></g><g
           transform="translate(278.9355,190.2051)"
           id="g110"><path
             id="path112"
             style="fill:#f05543;fill-opacity:1;fill-rule:nonzero;stroke:none"
             d="m 0,0 c 0,-7.849 -6.362,-14.212 -14.211,-14.212 -7.849,0 -14.212,6.363 -14.212,14.212 0,7.849 6.363,14.212 14.212,14.212 C -6.362,14.212 0,7.849 0,0" /></g><g
           transform="translate(278.9355,191.7354)"
           id="g114"><path
             id="path116"
             style="fill:none;stroke:#333333;stroke-width:2;stroke-linecap:round;stroke-linejoin:round;stroke-miterlimit:10;stroke-dasharray:none;stroke-opacity:1"
             d="m 0,0 c 0,-8.693 -7.048,-15.742 -15.741,-15.742 -8.695,0 -15.743,7.049 -15.743,15.742 0,8.694 7.048,15.742 15.743,15.742 C -7.048,15.742 0,8.694 0,0 Z" /></g><g
           transform="translate(189.8423,142.6934)"
           id="g118"><path
             id="path120"
             style="fill:#c6c3c0;fill-opacity:1;fill-rule:nonzero;stroke:none"
             d="m 0,0 h -14.193 c -9.624,0 -17.498,7.874 -17.498,17.497 V 186.043 H 17.497 V 17.497 C 17.497,7.874 9.624,0 0,0" /></g><g
           transform="translate(200.7817,142.6934)"
           id="g122"><path
             id="path124"
             style="fill:#e8e7e7;fill-opacity:1;fill-rule:nonzero;stroke:none"
             d="m 0,0 h -16.321 c -9.624,0 -17.498,7.874 -17.498,17.497 V 186.043 H 17.497 V 17.497 C 17.497,7.874 9.624,0 0,0" /></g><g
           transform="translate(189.8423,142.6934)"
           id="g126"><path
             id="path128"
             style="fill:#dcd8d4;fill-opacity:1;fill-rule:nonzero;stroke:none"
             d="m 0,0 h -5.382 c -9.623,0 -17.497,7.874 -17.497,17.497 V 186.043 H 17.497 V 17.497 C 17.497,7.874 9.624,0 0,0" /></g><g
           transform="translate(215.8179,320.7261)"
           id="g130"><path
             id="path132"
             style="fill:#959595;fill-opacity:1;fill-rule:nonzero;stroke:none"
             d="m 0,0 h -57.333 c -2.75,0 -5,2.25 -5,5 v 8.94 c 0,2.75 2.25,5 5,5 L 0,18.94 c 2.75,0 5,-2.25 5,-5 V 5 C 5,2.25 2.75,0 0,0" /></g><g
           transform="translate(187.1514,142.6934)"
           id="g134"><path
             id="path136"
             style="fill:none;stroke:#333333;stroke-width:8;stroke-linecap:butt;stroke-linejoin:miter;stroke-miterlimit:10;stroke-dasharray:none;stroke-opacity:1"
             d="M 0,0 V 0 C -17.12,0 -31.127,14.008 -31.127,31.128 V 186.043 H 31.127 V 31.128 C 31.127,14.008 17.12,0 0,0 Z" /></g><g
           transform="translate(189.4849,156)"
           id="g138"><path
             id="path140"
             style="fill:#e2a945;fill-opacity:1;fill-rule:nonzero;stroke:none"
             d="m 0,0 h -9.188 c -7.334,0 -13.334,6 -13.334,13.333 V 118.175 H 13.333 V 13.333 C 13.333,6 7.333,0 0,0" /></g><g
           transform="translate(192.4121,154)"
           id="g142"><path
             id="path144"
             style="fill:#f7c879;fill-opacity:1;fill-rule:nonzero;stroke:none"
             d="m 0,0 h -6.261 c -7.333,0 -13.333,6 -13.333,13.333 V 120.175 H 14.927 V 14.928 C 14.927,6.718 8.21,0 0,0" /></g><g
           transform="translate(189.4849,154)"
           id="g146"><path
             id="path148"
             style="fill:#efbd56;fill-opacity:1;fill-rule:nonzero;stroke:none"
             d="m 0,0 h -3.333 c -7.334,0 -13.334,6 -13.334,13.333 v 106.842 h 30 V 13.333 C 13.333,6 7.333,0 0,0" /></g><g
           transform="translate(187.1514,154)"
           id="g150"><path
             id="path152"
             style="fill:none;stroke:#333333;stroke-width:4;stroke-linecap:round;stroke-linejoin:round;stroke-miterlimit:10;stroke-dasharray:none;stroke-opacity:1"
             d="m 0,0 v 0 c -11.104,0 -20.188,9.085 -20.188,20.188 v 99.987 H 20.188 V 20.188 C 20.188,9.085 11.104,0 0,0 Z" /></g><g
           transform="translate(210.8179,327.7261)"
           id="g154"><path
             id="path156"
             style="fill:#c6c3c0;fill-opacity:1;fill-rule:nonzero;stroke:none"
             d="m 0,0 h -55.667 c -2.75,0 -5,2.25 -5,5 v 8.94 c 0,2.75 2.25,5 5,5 L 0,18.94 c 2.75,0 5,-2.25 5,-5 V 5 C 5,2.25 2.75,0 0,0" /></g><g
           transform="translate(219.1514,327.7261)"
           id="g158"><path
             id="path160"
             style="fill:#e8e7e7;fill-opacity:1;fill-rule:nonzero;stroke:none"
             d="m 0,0 h -55.667 c -2.75,0 -5,2.25 -5,5 v 8.94 c 0,2.75 2.25,5 5,5 L 0,18.94 c 2.75,0 5,-2.25 5,-5 V 5 C 5,2.25 2.75,0 0,0" /></g><g
           transform="translate(210.8179,327.7261)"
           id="g162"><path
             id="path164"
             style="fill:#dcd8d4;fill-opacity:1;fill-rule:nonzero;stroke:none"
             d="m 0,0 h -47.333 c -2.75,0 -5,2.25 -5,5 v 8.94 c 0,2.75 2.25,5 5,5 L 0,18.94 c 2.75,0 5,-2.25 5,-5 V 5 C 5,2.25 2.75,0 0,0" /></g><g
           transform="translate(220.8179,327.7261)"
           id="g166"><path
             id="path168"
             style="fill:none;stroke:#333333;stroke-width:8;stroke-linecap:butt;stroke-linejoin:miter;stroke-miterlimit:10;stroke-dasharray:none;stroke-opacity:1"
             d="m 0,0 h -67.333 c -2.75,0 -5,2.25 -5,5 v 8.94 c 0,2.75 2.25,5 5,5 L 0,18.94 c 2.75,0 5,-2.25 5,-5 V 5 C 5,2.25 2.75,0 0,0 Z" /></g><g
           transform="translate(184.5264,180.3301)"
           id="g170"><path
             id="path172"
             style="fill:#f8e5cd;fill-opacity:1;fill-rule:nonzero;stroke:none"
             d="m 0,0 c 0,-2.138 -1.733,-3.872 -3.872,-3.872 -2.138,0 -3.872,1.734 -3.872,3.872 0,2.139 1.734,3.872 3.872,3.872 C -1.733,3.872 0,2.139 0,0" /></g><g
           transform="translate(183.6929,180.7471)"
           id="g174"><path
             id="path176"
             style="fill:#f8cd90;fill-opacity:1;fill-rule:nonzero;stroke:none"
             d="m 0,0 c 0,-1.908 -1.547,-3.455 -3.455,-3.455 -1.908,0 -3.455,1.547 -3.455,3.455 0,1.908 1.547,3.455 3.455,3.455 C -1.547,3.455 0,1.908 0,0" /></g><g
           transform="translate(185.3179,179.9346)"
           id="g178"><path
             id="path180"
             style="fill:none;stroke:#333333;stroke-width:2;stroke-linecap:round;stroke-linejoin:round;stroke-miterlimit:10;stroke-dasharray:none;stroke-opacity:1"
             d="m 0,0 c 0,-2.357 -1.911,-4.268 -4.268,-4.268 -2.357,0 -4.267,1.911 -4.267,4.268 0,2.356 1.91,4.268 4.267,4.268 C -1.911,4.268 0,2.356 0,0 Z" /></g><g
           transform="translate(197.9014,194.2852)"
           id="g182"><path
             id="path184"
             style="fill:#f8e5cd;fill-opacity:1;fill-rule:nonzero;stroke:none"
             d="m 0,0 c 0,-3.067 -2.486,-5.553 -5.553,-5.553 -3.067,0 -5.553,2.486 -5.553,5.553 0,3.067 2.486,5.553 5.553,5.553 C -2.486,5.553 0,3.067 0,0" /></g><g
           transform="translate(196.7061,194.8828)"
           id="g186"><path
             id="path188"
             style="fill:#f8cd90;fill-opacity:1;fill-rule:nonzero;stroke:none"
             d="m 0,0 c 0,-2.737 -2.219,-4.956 -4.956,-4.956 -2.736,0 -4.955,2.219 -4.955,4.956 0,2.736 2.219,4.955 4.955,4.955 C -2.219,4.955 0,2.736 0,0" /></g><g
           transform="translate(198.2437,194.1143)"
           id="g190"><path
             id="path192"
             style="fill:none;stroke:#333333;stroke-width:2;stroke-linecap:round;stroke-linejoin:round;stroke-miterlimit:10;stroke-dasharray:none;stroke-opacity:1"
             d="m 0,0 c 0,-3.162 -2.563,-5.725 -5.724,-5.725 -3.162,0 -5.725,2.563 -5.725,5.725 0,3.161 2.563,5.724 5.725,5.724 C -2.563,5.724 0,3.161 0,0 Z" /></g><g
           transform="translate(187.8179,212.1689)"
           id="g194"><path
             id="path196"
             style="fill:#f8e5cd;fill-opacity:1;fill-rule:nonzero;stroke:none"
             d="m 0,0 c 0,-4.142 -3.357,-7.498 -7.498,-7.498 -4.141,0 -7.498,3.356 -7.498,7.498 0,4.141 3.357,7.498 7.498,7.498 C -3.357,7.498 0,4.141 0,0" /></g><g
           transform="translate(186.2041,212.9756)"
           id="g198"><path
             id="path200"
             style="fill:#f8cd90;fill-opacity:1;fill-rule:nonzero;stroke:none"
             d="m 0,0 c 0,-3.695 -2.996,-6.691 -6.691,-6.691 -3.696,0 -6.691,2.996 -6.691,6.691 0,3.695 2.995,6.691 6.691,6.691 C -2.996,6.691 0,3.695 0,0" /></g><g
           transform="translate(187.6538,212.251)"
           id="g202"><path
             id="path204"
             style="fill:none;stroke:#333333;stroke-width:2;stroke-linecap:round;stroke-linejoin:round;stroke-miterlimit:10;stroke-dasharray:none;stroke-opacity:1"
             d="m 0,0 c 0,-4.096 -3.32,-7.416 -7.416,-7.416 -4.096,0 -7.416,3.32 -7.416,7.416 0,4.096 3.32,7.416 7.416,7.416 C -3.32,7.416 0,4.096 0,0 Z" /></g></g></g></g></svg>